<svg width="30" height="30" viewBox="0 0 30 31" fill="none" xmlns="http://www.w3.org/2000/svg">
<path d="M19.6875 5.1875C19.6875 6.4307 19.1936 7.62299 18.3146 8.50206C17.4355 9.38114 16.2432 9.875 15 9.875C13.7568 9.875 12.5645 9.38114 11.6854 8.50206C10.8064 7.62299 10.3125 6.4307 10.3125 5.1875C10.3125 3.9443 10.8064 2.75201 11.6854 1.87294C12.5645 0.99386 13.7568 0.5 15 0.5C16.2432 0.5 17.4355 0.99386 18.3146 1.87294C19.1936 2.75201 19.6875 3.9443 19.6875 5.1875ZM29.0625 6.125C29.0625 7.11956 28.6674 8.07339 27.9641 8.77665C27.2609 9.47991 26.3071 9.875 25.3125 9.875C24.3179 9.875 23.3641 9.47991 22.6609 8.77665C21.9576 8.07339 21.5625 7.11956 21.5625 6.125C21.5625 5.13044 21.9576 4.17661 22.6609 3.47335C23.3641 2.77009 24.3179 2.375 25.3125 2.375C26.3071 2.375 27.2609 2.77009 27.9641 3.47335C28.6674 4.17661 29.0625 5.13044 29.0625 6.125ZM4.6875 9.875C5.68206 9.875 6.63589 9.47991 7.33915 8.77665C8.04241 8.07339 8.4375 7.11956 8.4375 6.125C8.4375 5.13044 8.04241 4.17661 7.33915 3.47335C6.63589 2.77009 5.68206 2.375 4.6875 2.375C3.69294 2.375 2.73911 2.77009 2.03585 3.47335C1.33259 4.17661 0.9375 5.13044 0.9375 6.125C0.9375 7.11956 1.33259 8.07339 2.03585 8.77665C2.73911 9.47991 3.69294 9.875 4.6875 9.875ZM7.5 14.0937C7.5 12.8 8.55 11.75 9.84375 11.75H20.1562C21.45 11.75 22.5 12.8 22.5 14.0937V23C22.5 24.9891 21.7098 26.8968 20.3033 28.3033C18.8968 29.7098 16.9891 30.5 15 30.5C13.0109 30.5 11.1032 29.7098 9.6967 28.3033C8.29018 26.8968 7.5 24.9891 7.5 23V14.0937ZM5.625 14.0937C5.625 13.2256 5.8875 12.4213 6.33563 11.75H2.34375C1.05 11.75 3.34464e-08 12.8 3.34464e-08 14.0937V21.125C-8.74985e-05 21.9277 0.171635 22.7212 0.503628 23.452C0.835621 24.1829 1.3202 24.8342 1.92479 25.3622C2.52939 25.8903 3.24 26.2828 4.00887 26.5134C4.77775 26.7441 5.58709 26.8075 6.3825 26.6994C5.8817 25.5304 5.62397 24.2717 5.625 23V14.0937ZM24.375 23C24.375 24.3125 24.105 25.565 23.6175 26.6994C23.865 26.7331 24.1175 26.75 24.375 26.75C25.8668 26.75 27.2976 26.1574 28.3525 25.1025C29.4074 24.0476 30 22.6168 30 21.125V14.0937C30 12.8 28.95 11.75 27.6562 11.75H23.6644C24.1144 12.4213 24.375 13.2256 24.375 14.0937V23Z" fill="black"/>
</svg>
