<svg width="30" height="29" viewBox="0 0 30 29" fill="#333" xmlns="http://www.w3.org/2000/svg">
<path d="M11.2537 6.50003C11.2537 5.50647 11.6484 4.55359 12.351 3.85104C13.0536 3.14848 14.0064 2.75378 15 2.75378C15.9936 2.75378 16.9464 3.14848 17.649 3.85104C18.3516 4.55359 18.7463 5.50647 18.7463 6.50003C18.7463 7.4936 18.3516 8.44647 17.649 9.14903C16.9464 9.85159 15.9936 10.2463 15 10.2463C14.0064 10.2463 13.0536 9.85159 12.351 9.14903C11.6484 8.44647 11.2537 7.4936 11.2537 6.50003ZM15 4.62878C14.7543 4.62878 14.5109 4.67719 14.2839 4.77122C14.0569 4.86526 13.8506 5.0031 13.6768 5.17686C13.5031 5.35062 13.3652 5.55691 13.2712 5.78394C13.1772 6.01097 13.1287 6.2543 13.1287 6.50003C13.1287 6.74577 13.1772 6.9891 13.2712 7.21613C13.3652 7.44316 13.5031 7.64945 13.6768 7.82321C13.8506 7.99697 14.0569 8.1348 14.2839 8.22884C14.5109 8.32288 14.7543 8.37128 15 8.37128C15.4963 8.37128 15.9722 8.17414 16.3232 7.82321C16.6741 7.47228 16.8713 6.99632 16.8713 6.50003C16.8713 6.00375 16.6741 5.52779 16.3232 5.17686C15.9722 4.82593 15.4963 4.62878 15 4.62878ZM20.625 7.43753C20.625 7.06819 20.6977 6.70247 20.8391 6.36124C20.9804 6.02001 21.1876 5.70996 21.4488 5.4488C21.7099 5.18763 22.02 4.98046 22.3612 4.83912C22.7024 4.69778 23.0682 4.62503 23.4375 4.62503C23.8068 4.62503 24.1726 4.69778 24.5138 4.83912C24.855 4.98046 25.1651 5.18763 25.4262 5.4488C25.6874 5.70996 25.8946 6.02001 26.0359 6.36124C26.1773 6.70247 26.25 7.06819 26.25 7.43753C26.25 8.18346 25.9537 8.89883 25.4262 9.42627C24.8988 9.95372 24.1834 10.25 23.4375 10.25C22.6916 10.25 21.9762 9.95372 21.4488 9.42627C20.9213 8.89883 20.625 8.18346 20.625 7.43753ZM23.4375 6.50003C23.1889 6.50003 22.9504 6.59881 22.7746 6.77462C22.5988 6.95044 22.5 7.18889 22.5 7.43753C22.5 7.68617 22.5988 7.92463 22.7746 8.10045C22.9504 8.27626 23.1889 8.37503 23.4375 8.37503C23.6861 8.37503 23.9246 8.27626 24.1004 8.10045C24.2762 7.92463 24.375 7.68617 24.375 7.43753C24.375 7.18889 24.2762 6.95044 24.1004 6.77462C23.9246 6.59881 23.6861 6.50003 23.4375 6.50003ZM6.5625 4.62503C5.81658 4.62503 5.10121 4.92135 4.57376 5.4488C4.04632 5.97624 3.75 6.69161 3.75 7.43753C3.75 8.18346 4.04632 8.89883 4.57376 9.42627C5.10121 9.95372 5.81658 10.25 6.5625 10.25C7.30842 10.25 8.02379 9.95372 8.55124 9.42627C9.07868 8.89883 9.375 8.18346 9.375 7.43753C9.375 6.69161 9.07868 5.97624 8.55124 5.4488C8.02379 4.92135 7.30842 4.62503 6.5625 4.62503ZM5.625 7.43753C5.625 7.18889 5.72377 6.95044 5.89959 6.77462C6.0754 6.59881 6.31386 6.50003 6.5625 6.50003C6.81114 6.50003 7.0496 6.59881 7.22541 6.77462C7.40123 6.95044 7.5 7.18889 7.5 7.43753C7.5 7.68617 7.40123 7.92463 7.22541 8.10045C7.0496 8.27626 6.81114 8.37503 6.5625 8.37503C6.31386 8.37503 6.0754 8.27626 5.89959 8.10045C5.72377 7.92463 5.625 7.68617 5.625 7.43753ZM8.0025 12.125C7.67334 12.6951 7.50003 13.3418 7.5 14H3.75V18.6875C3.74985 19.1539 3.86568 19.613 4.08706 20.0235C4.30845 20.434 4.62844 20.783 5.01823 21.0391C5.40802 21.2951 5.85537 21.4503 6.32002 21.4905C6.78466 21.5307 7.25201 21.4547 7.68 21.2694C7.81875 21.89 8.03625 22.4825 8.3175 23.0357C7.60587 23.323 6.83458 23.4312 6.07136 23.3508C5.30813 23.2704 4.57633 23.0038 3.9402 22.5745C3.30408 22.1452 2.7831 21.5662 2.42301 20.8885C2.06292 20.2108 1.87474 19.455 1.875 18.6875V14C1.875 13.5028 2.07254 13.0258 2.42417 12.6742C2.77581 12.3226 3.25272 12.125 3.75 12.125H8.0025ZM21.6825 23.0357C22.3941 23.323 23.1654 23.4312 23.9286 23.3508C24.6919 23.2704 25.4237 23.0038 26.0598 22.5745C26.6959 22.1452 27.2169 21.5662 27.577 20.8885C27.9371 20.2108 28.1253 19.455 28.125 18.6875V14C28.125 13.5028 27.9275 13.0258 27.5758 12.6742C27.2242 12.3226 26.7473 12.125 26.25 12.125H21.9975C22.3162 12.6763 22.5 13.3157 22.5 14H26.25V18.6875C26.2502 19.1539 26.1343 19.613 25.9129 20.0235C25.6916 20.434 25.3716 20.783 24.9818 21.0391C24.592 21.2951 24.1446 21.4503 23.68 21.4905C23.2153 21.5307 22.748 21.4547 22.32 21.2694C22.1775 21.8919 21.965 22.4807 21.6825 23.0357ZM11.25 12.1232C10.7527 12.1232 10.2758 12.3207 9.92418 12.6723C9.57254 13.024 9.375 13.5009 9.375 13.9982V19.625C9.375 21.1169 9.96763 22.5476 11.0225 23.6025C12.0774 24.6574 13.5082 25.25 15 25.25C16.4918 25.25 17.9226 24.6574 18.9775 23.6025C20.0324 22.5476 20.625 21.1169 20.625 19.625V14C20.625 13.5028 20.4275 13.0258 20.0758 12.6742C19.7242 12.3226 19.2473 12.125 18.75 12.125L11.25 12.1232ZM11.25 13.9982H18.75V19.625C18.75 20.6196 18.3549 21.5734 17.6516 22.2767C16.9484 22.9799 15.9946 23.375 15 23.375C14.0054 23.375 13.0516 22.9799 12.3483 22.2767C11.6451 21.5734 11.25 20.6196 11.25 19.625V13.9982Z" fill="#020202"/>
</svg>
