<svg width="68" height="68" viewBox="0 0 68 68" fill="none" xmlns="http://www.w3.org/2000/svg">
<path d="M34 67.3334C15.59 67.3334 0.666626 52.4101 0.666626 34.0001C0.666626 15.5901 15.59 0.666748 34 0.666748C52.41 0.666748 67.3333 15.5901 67.3333 34.0001C67.3333 52.4101 52.41 67.3334 34 67.3334ZM34 60.6668C41.0724 60.6668 47.8552 57.8572 52.8561 52.8563C57.8571 47.8553 60.6666 41.0725 60.6666 34.0001C60.6666 26.9276 57.8571 20.1449 52.8561 15.1439C47.8552 10.1429 41.0724 7.33342 34 7.33342C26.9275 7.33342 20.1448 10.1429 15.1438 15.1439C10.1428 20.1449 7.33329 26.9276 7.33329 34.0001C7.33329 41.0725 10.1428 47.8553 15.1438 52.8563C20.1448 57.8572 26.9275 60.6668 34 60.6668ZM34 17.3334C34.884 17.3334 35.7319 17.6846 36.357 18.3097C36.9821 18.9348 37.3333 19.7827 37.3333 20.6667V37.3334C37.3333 38.2175 36.9821 39.0653 36.357 39.6904C35.7319 40.3156 34.884 40.6667 34 40.6667C33.1159 40.6667 32.2681 40.3156 31.6429 39.6904C31.0178 39.0653 30.6666 38.2175 30.6666 37.3334V20.6667C30.6666 19.7827 31.0178 18.9348 31.6429 18.3097C32.2681 17.6846 33.1159 17.3334 34 17.3334ZM34 50.6668C33.1159 50.6668 32.2681 50.3156 31.6429 49.6904C31.0178 49.0653 30.6666 48.2175 30.6666 47.3334C30.6666 46.4494 31.0178 45.6015 31.6429 44.9764C32.2681 44.3513 33.1159 44.0001 34 44.0001C34.884 44.0001 35.7319 44.3513 36.357 44.9764C36.9821 45.6015 37.3333 46.4494 37.3333 47.3334C37.3333 48.2175 36.9821 49.0653 36.357 49.6904C35.7319 50.3156 34.884 50.6668 34 50.6668Z" fill="#C30000"/>
</svg>
