<svg width="72" height="81" viewBox="0 0 72 81" fill="none" xmlns="http://www.w3.org/2000/svg">
<path d="M67.6667 12.2083C68.7165 12.2083 69.7233 12.6341 70.4656 13.392C71.208 14.15 71.625 15.178 71.625 16.2499C71.625 17.3218 71.208 18.3498 70.4656 19.1078C69.7233 19.8658 68.7165 20.2916 67.6667 20.2916H63.7083L63.6965 20.5785L60.0033 73.4072C59.8612 75.4465 58.9674 77.3551 57.5021 78.7485C56.0368 80.1419 54.1088 80.9166 52.1065 80.9166H19.8896C17.8872 80.9166 15.9592 80.1419 14.4939 78.7485C13.0286 77.3551 12.1349 75.4465 11.9927 73.4072L8.29958 20.5826L8.29167 20.2916H4.33333C3.28352 20.2916 2.2767 19.8658 1.53437 19.1078C0.792037 18.3498 0.375 17.3218 0.375 16.2499C0.375 15.178 0.792037 14.15 1.53437 13.392C2.2767 12.6341 3.28352 12.2083 4.33333 12.2083H67.6667ZM55.7798 20.2916H16.2202L19.8935 72.8333H52.1065L55.7798 20.2916ZM43.9167 0.083252C44.9665 0.083252 45.9733 0.509069 46.7156 1.26703C47.458 2.02499 47.875 3.053 47.875 4.12492C47.875 5.19684 47.458 6.22485 46.7156 6.98281C45.9733 7.74077 44.9665 8.16659 43.9167 8.16659H28.0833C27.0335 8.16659 26.0267 7.74077 25.2844 6.98281C24.542 6.22485 24.125 5.19684 24.125 4.12492C24.125 3.053 24.542 2.02499 25.2844 1.26703C26.0267 0.509069 27.0335 0.083252 28.0833 0.083252H43.9167Z" fill="black" fill-opacity="0.8"/>
</svg>
