<svg width="23" height="24" viewBox="0 0 23 24" fill="none" xmlns="http://www.w3.org/2000/svg">
<path d="M5.75002 1.88811V9.28097C5.75002 12.4566 8.32437 15.031 11.5 15.031C14.6757 15.031 17.25 12.4566 17.25 9.28097V1.88811H5.75002Z" fill="#FDDC5C"/>
<path fill-rule="evenodd" clip-rule="evenodd" d="M1.64287 0.861328C1.0758 0.861328 0.616089 1.32104 0.616089 1.88811V6.81669C0.616089 9.48661 2.65418 11.6805 5.25946 11.9275C6.10893 13.9281 7.8923 15.4362 10.0625 15.905V20.1649H7.39287C6.59896 20.1649 5.95537 20.8086 5.95537 21.6024C5.95537 22.3962 6.59896 23.0399 7.39287 23.0399H15.6072C16.4011 23.0399 17.0447 22.3962 17.0447 21.6024C17.0447 20.8086 16.4011 20.1649 15.6072 20.1649H12.9375V15.905C15.1077 15.4362 16.8911 13.9281 17.7406 11.9275C20.3458 11.6805 22.3839 9.48661 22.3839 6.81669V1.88811C22.3839 1.32104 21.9243 0.861328 21.3572 0.861328H1.64287ZM6.7768 2.9149V9.28097C6.7768 11.8895 8.89146 14.0042 11.5 14.0042C14.1086 14.0042 16.2232 11.8895 16.2232 9.28097V2.9149H6.7768ZM4.72323 2.9149H2.66966V6.81669C2.66966 8.1579 3.52682 9.29889 4.72323 9.72177V2.9149ZM18.2768 2.9149V9.72177C19.4731 9.29889 20.3304 8.1579 20.3304 6.81669V2.9149H18.2768Z" fill="black"/>
</svg>
