<svg width="30" height="29" viewBox="0 0 30 29" fill="none" xmlns="http://www.w3.org/2000/svg">
<path d="M26.5062 8.7063C26.1947 8.03937 25.6894 7.4818 25.0562 7.1063L16.9687 2.1063C16.3755 1.73878 15.6915 1.54407 14.9937 1.54407C14.2959 1.54407 13.6119 1.73878 13.0187 2.1063L4.93122 7.1063C4.31814 7.49676 3.83175 8.05698 3.53122 8.7188C3.22053 9.38106 3.11602 10.1214 3.23122 10.8438L5.33122 23.3438C5.46588 24.2155 5.90955 25.0096 6.58122 25.5813C7.24756 26.1394 8.08707 26.4487 8.95622 26.4563H20.9812C21.8676 26.4604 22.7267 26.1504 23.4062 25.5813C24.0814 25.0126 24.5259 24.217 24.6562 23.3438L26.7562 10.8438C26.8835 10.1222 26.7966 9.37907 26.5062 8.7063ZM19.1812 20.8313H10.8187C10.4872 20.8313 10.1693 20.6996 9.93483 20.4652C9.70041 20.2308 9.56872 19.9128 9.56872 19.5813C9.56872 19.2498 9.70041 18.9318 9.93483 18.6974C10.1693 18.463 10.4872 18.3313 10.8187 18.3313H19.1812C19.5127 18.3313 19.8307 18.463 20.0651 18.6974C20.2995 18.9318 20.4312 19.2498 20.4312 19.5813C20.4312 19.9128 20.2995 20.2308 20.0651 20.4652C19.8307 20.6996 19.5127 20.8313 19.1812 20.8313Z" fill="#020202"/>
</svg>
