<svg width="30" height="30" viewBox="0 0 30 30" fill="none" xmlns="http://www.w3.org/2000/svg">
<path d="M24.7933 8.53152L24.7932 8.5316L24.8012 8.53629C25.3458 8.85927 25.7808 9.33826 26.0501 9.91119C26.2994 10.4925 26.3737 11.1339 26.2638 11.7569L26.2631 11.7609L24.1631 24.2609L24.163 24.2609L24.1617 24.2699C24.0494 25.0225 23.6664 25.7082 23.0845 26.1985C22.4957 26.6913 21.7514 26.9598 20.9835 26.9562H20.9812H8.9585C8.20661 26.9492 7.48044 26.6816 6.90371 26.1991C6.32431 25.7053 5.94159 25.0198 5.82536 24.2674L5.8254 24.2674L5.82431 24.2609L3.72498 11.765C3.72487 11.7643 3.72477 11.7637 3.72466 11.763C3.62575 11.1402 3.71604 10.502 3.98388 9.93109L3.98392 9.93111L3.98648 9.92547C4.24649 9.35287 4.66704 8.86803 5.19709 8.5297L13.2816 3.53152L13.2821 3.53127C13.7962 3.21276 14.3889 3.04401 14.9937 3.04401C15.5985 3.04401 16.1913 3.21276 16.7054 3.53127L16.7058 3.53152L24.7933 8.53152ZM10.8187 22.3312H19.1812C19.6453 22.3312 20.0905 22.1469 20.4187 21.8187C20.7468 21.4905 20.9312 21.0454 20.9312 20.5812C20.9312 20.1171 20.7468 19.672 20.4187 19.3438C20.0905 19.0156 19.6453 18.8312 19.1812 18.8312H10.8187C10.3546 18.8312 9.90947 19.0156 9.58128 19.3438C9.25309 19.672 9.06872 20.1171 9.06872 20.5812C9.06872 21.0454 9.25309 21.4905 9.58128 21.8187C9.90947 22.1469 10.3546 22.3312 10.8187 22.3312Z" fill="white" stroke="#020202"/>
</svg>
